<svg width="54" height="54" viewBox="0 0 54 54" fill="none" xmlns="http://www.w3.org/2000/svg">
<g clip-path="url(#clip0_64_90)">
<path d="M12.1705 52.3114C13.8602 50.0056 14.6766 47.9231 15.0161 45.6952C15.2514 44.1559 15.2682 42.5156 15.1894 40.6741L16.112 40.7215V40.7162C16.7121 40.7594 17.3268 40.7783 17.9289 40.8089L17.9846 40.811C18.0581 42.7135 18.0287 44.4412 17.7723 46.1206C17.3646 48.7906 16.4021 51.2649 14.4171 53.9739L12.1705 52.3114ZM7.24217 39.2854L13.484 45.5394L12.9575 48.0494L4.90202 39.9781C3.79762 40.4098 2.72475 40.9942 1.69075 41.7796L0 39.5602C5.18679 35.6193 10.7634 35.9078 16.3495 36.1963C16.98 36.2289 17.6105 36.2615 18.117 36.2836C20.3289 36.3784 22.5241 36.3963 24.631 36.0457L19.0648 30.4687L19.5902 27.9576L27.0636 35.4445C28.5473 34.9444 29.9964 34.1821 31.3982 33.0387L20.9237 22.5448C19.0333 24.6063 18.1527 26.8637 17.7891 29.2631C17.5359 30.9319 17.5275 32.6965 17.6073 34.5233L16.5345 34.4685C16.4735 34.4622 16.4126 34.459 16.3495 34.459C15.8367 34.4327 15.325 34.4064 14.8122 34.3832C14.7365 32.4954 14.7586 30.6477 15.0329 28.8378C15.4847 25.8529 16.6112 23.0365 19.069 20.4475C21.6918 17.6837 24.4986 16.2371 27.404 15.5127C29.7127 14.9368 32.0392 14.8273 34.3698 14.8715C34.4024 15.4232 34.4403 15.9897 34.4812 16.574C34.5075 16.9415 34.5327 17.3068 34.5569 17.6711C32.7842 17.629 31.0314 17.6732 29.3365 17.9596L35.0224 23.6566L34.4959 26.1667L26.9081 18.5639C25.3907 19.0798 23.908 19.8705 22.4768 21.0634L32.966 31.5731C34.932 29.479 35.8399 27.1816 36.2109 24.7369C36.6018 22.1616 36.4105 19.3557 36.2067 16.4487C35.9765 13.1669 35.8326 10.4653 36.2277 7.8784C36.6354 5.20939 37.5979 2.73411 39.5829 0.0250854L41.8285 1.68861C40.1398 3.99439 39.3234 6.07695 38.9829 8.30376C38.6309 10.6127 38.7685 13.1512 38.985 16.2476C39.2004 19.3209 39.4022 22.2879 38.9671 25.1622C38.5142 28.1471 37.3888 30.9625 34.931 33.5525C32.3082 36.3163 29.5014 37.7629 26.596 38.4873C23.7493 39.1969 20.8764 39.199 18.0014 39.0758C17.3205 39.0464 16.7614 39.0179 16.2035 38.9885C13.1635 38.8316 10.1266 38.6747 7.24217 39.2854ZM46.514 14.7641L40.4866 8.72491L41.0131 6.21488L48.8857 14.1029C50.0637 13.6639 51.209 13.0553 52.3092 12.2194L54 14.4399C49.7978 17.6311 45.3424 18.0491 40.8323 17.9385C40.7945 17.3363 40.7525 16.7319 40.7104 16.1223C40.6863 15.7865 40.6642 15.458 40.6432 15.1347C42.6355 15.1895 44.6068 15.139 46.514 14.7641Z" fill="white"/>
</g>
<defs>
<clipPath id="clip0_64_90">
<rect width="54" height="54" fill="white"/>
</clipPath>
</defs>
</svg>
