<svg width="54" height="54" viewBox="0 0 54 54" fill="none" xmlns="http://www.w3.org/2000/svg">
<path d="M46.8128 9.12032C44.3257 8.3361 41.5921 8 38.9706 8C34.6013 8 29.896 8.89626 26.6471 11.361C23.3981 8.89626 18.6928 8 14.3235 8C9.95428 8 5.24893 8.89626 2 11.361V44.1864C2 44.7465 2.56016 45.3067 3.12032 45.3067C3.34438 45.3067 3.45642 45.1947 3.68048 45.1947C6.70535 43.7382 11.0746 42.7299 14.3235 42.7299C18.6928 42.7299 23.3981 43.6262 26.6471 46.0909C29.6719 44.1864 35.1615 42.7299 38.9706 42.7299C42.6676 42.7299 46.4767 43.4021 49.6136 45.0826C49.8377 45.1946 49.9497 45.1947 50.1738 45.1947C50.734 45.1947 51.2941 44.6345 51.2941 44.0743V11.361C49.9497 10.3527 48.4933 9.68048 46.8128 9.12032ZM46.8128 39.369C44.3481 38.5848 41.6594 38.2487 38.9706 38.2487C35.1615 38.2487 29.6719 39.7051 26.6471 41.6096V15.8422C29.6719 13.9377 35.1615 12.4813 38.9706 12.4813C41.6594 12.4813 44.3481 12.8174 46.8128 13.6016V39.369Z" fill="white"/>
<path d="M38.9706 21.4439C40.9423 21.4439 42.8469 21.6455 44.5722 22.0264V18.6207C42.8021 18.2846 40.8975 18.0829 38.9706 18.0829C35.1615 18.0829 31.7109 18.7327 28.8877 19.9426V23.6621C31.4196 22.2281 34.9374 21.4439 38.9706 21.4439Z" fill="white"/>
<path d="M28.8877 25.9027V29.6222C31.4196 28.1882 34.9374 27.404 38.9706 27.404C40.9423 27.404 42.8469 27.6056 44.5722 27.9865V24.5808C42.8021 24.2447 40.8975 24.043 38.9706 24.043C35.1615 24.043 31.7109 24.7152 28.8877 25.9027Z" fill="white"/>
<path d="M38.9706 30.0255C35.1615 30.0255 31.7109 30.6753 28.8877 31.8852V35.6047C31.4196 34.1707 34.9374 33.3865 38.9706 33.3865C40.9423 33.3865 42.8469 33.5881 44.5722 33.969V30.5633C42.8021 30.2048 40.8975 30.0255 38.9706 30.0255Z" fill="white"/>
</svg>
