<svg width="52" height="52" viewBox="0 0 52 52" fill="none" xmlns="http://www.w3.org/2000/svg">
<g clip-path="url(#clip0_2_183)">
<path d="M41.47 28.0367C41.5567 27.3867 41.6 26.715 41.6 26C41.6 25.3067 41.5567 24.6133 41.4484 23.9633L45.8467 20.54C46.2367 20.2367 46.345 19.6517 46.1067 19.2183L41.9467 12.025C41.6867 11.5483 41.145 11.3967 40.6684 11.5483L35.49 13.6283C34.4067 12.805 33.2584 12.1117 31.98 11.5917L31.2 6.08833C31.1134 5.56833 30.68 5.2 30.16 5.2H21.84C21.32 5.2 20.9084 5.56833 20.8217 6.08833L20.0417 11.5917C18.7634 12.1117 17.5934 12.8267 16.5317 13.6283L11.3534 11.5483C10.8767 11.375 10.335 11.5483 10.075 12.025L5.9367 19.2183C5.6767 19.6733 5.76337 20.2367 6.1967 20.54L10.595 23.9633C10.4867 24.6133 10.4 25.3283 10.4 26C10.4 26.6717 10.4434 27.3867 10.5517 28.0367L6.15337 31.46C5.76337 31.7633 5.65503 32.3483 5.89337 32.7817L10.0534 39.975C10.3134 40.4517 10.855 40.6033 11.3317 40.4517L16.51 38.3717C17.5934 39.195 18.7417 39.8883 20.02 40.4083L20.8 45.9117C20.9084 46.4317 21.32 46.8 21.84 46.8H30.16C30.68 46.8 31.1134 46.4317 31.1784 45.9117L31.9584 40.4083C33.2367 39.8883 34.4067 39.195 35.4684 38.3717L40.6467 40.4517C41.1234 40.625 41.665 40.4517 41.925 39.975L46.085 32.7817C46.345 32.305 46.2367 31.7633 45.825 31.46L41.47 28.0367ZM26 33.8C21.71 33.8 18.2 30.29 18.2 26C18.2 21.71 21.71 18.2 26 18.2C30.29 18.2 33.8 21.71 33.8 26C33.8 30.29 30.29 33.8 26 33.8Z" fill="white"/>
</g>
<defs>
<clipPath id="clip0_2_183">
<rect width="52" height="52" fill="white"/>
</clipPath>
</defs>
</svg>
